<mxfile host="app.diagrams.net" agent="Mozilla/5.0 (Windows NT 10.0; Win64; x64) AppleWebKit/537.36 (KHTML, like Gecko) Chrome/135.0.0.0 Safari/537.36" version="26.2.14">
  <diagram name="Page-1" id="Vj3m_5ih5yy2Hbi58xBz">
    <mxGraphModel dx="953" dy="1589" grid="1" gridSize="10" guides="1" tooltips="1" connect="1" arrows="1" fold="1" page="1" pageScale="1" pageWidth="850" pageHeight="1100" math="0" shadow="0">
      <root>
        <mxCell id="0" />
        <mxCell id="1" parent="0" />
        <mxCell id="iplLW6rDe4Sud-mIpLHP-9" style="edgeStyle=orthogonalEdgeStyle;rounded=0;orthogonalLoop=1;jettySize=auto;html=1;exitX=1;exitY=0.5;exitDx=0;exitDy=0;entryX=0;entryY=0.5;entryDx=0;entryDy=0;" edge="1" parent="1" target="iplLW6rDe4Sud-mIpLHP-2">
          <mxGeometry relative="1" as="geometry">
            <mxPoint x="60" y="90" as="sourcePoint" />
          </mxGeometry>
        </mxCell>
        <mxCell id="iplLW6rDe4Sud-mIpLHP-12" style="edgeStyle=orthogonalEdgeStyle;rounded=0;orthogonalLoop=1;jettySize=auto;html=1;exitX=0.5;exitY=1;exitDx=0;exitDy=0;entryX=0.5;entryY=0;entryDx=0;entryDy=0;" edge="1" parent="1" source="iplLW6rDe4Sud-mIpLHP-2" target="iplLW6rDe4Sud-mIpLHP-10">
          <mxGeometry relative="1" as="geometry" />
        </mxCell>
        <mxCell id="iplLW6rDe4Sud-mIpLHP-2" value="Authorize with Payment Provider" style="rounded=0;whiteSpace=wrap;html=1;fillColor=#d5e8d4;strokeColor=#82b366;" vertex="1" parent="1">
          <mxGeometry x="140" y="60" width="120" height="60" as="geometry" />
        </mxCell>
        <mxCell id="iplLW6rDe4Sud-mIpLHP-19" style="edgeStyle=orthogonalEdgeStyle;rounded=0;orthogonalLoop=1;jettySize=auto;html=1;exitX=0.5;exitY=1;exitDx=0;exitDy=0;entryX=0.5;entryY=0;entryDx=0;entryDy=0;" edge="1" parent="1" source="iplLW6rDe4Sud-mIpLHP-3" target="iplLW6rDe4Sud-mIpLHP-16">
          <mxGeometry relative="1" as="geometry" />
        </mxCell>
        <mxCell id="iplLW6rDe4Sud-mIpLHP-3" value="Check and Reserve Inventory" style="rounded=0;whiteSpace=wrap;html=1;fillColor=#d5e8d4;strokeColor=#82b366;" vertex="1" parent="1">
          <mxGeometry x="140" y="270" width="120" height="60" as="geometry" />
        </mxCell>
        <mxCell id="iplLW6rDe4Sud-mIpLHP-14" style="edgeStyle=orthogonalEdgeStyle;rounded=0;orthogonalLoop=1;jettySize=auto;html=1;exitX=0.5;exitY=1;exitDx=0;exitDy=0;" edge="1" parent="1" source="iplLW6rDe4Sud-mIpLHP-4" target="iplLW6rDe4Sud-mIpLHP-5">
          <mxGeometry relative="1" as="geometry" />
        </mxCell>
        <mxCell id="iplLW6rDe4Sud-mIpLHP-4" value="Update Product Availability" style="rounded=0;whiteSpace=wrap;html=1;fillColor=#d5e8d4;strokeColor=#82b366;" vertex="1" parent="1">
          <mxGeometry x="140" y="480" width="120" height="60" as="geometry" />
        </mxCell>
        <mxCell id="iplLW6rDe4Sud-mIpLHP-15" style="edgeStyle=orthogonalEdgeStyle;rounded=0;orthogonalLoop=1;jettySize=auto;html=1;exitX=0.5;exitY=1;exitDx=0;exitDy=0;entryX=0.5;entryY=0;entryDx=0;entryDy=0;" edge="1" parent="1" source="iplLW6rDe4Sud-mIpLHP-5" target="iplLW6rDe4Sud-mIpLHP-7">
          <mxGeometry relative="1" as="geometry" />
        </mxCell>
        <mxCell id="iplLW6rDe4Sud-mIpLHP-5" value="Send Order Confirmation to Customer" style="rounded=0;whiteSpace=wrap;html=1;fillColor=#d5e8d4;strokeColor=#82b366;" vertex="1" parent="1">
          <mxGeometry x="140" y="580" width="120" height="60" as="geometry" />
        </mxCell>
        <mxCell id="iplLW6rDe4Sud-mIpLHP-26" style="edgeStyle=orthogonalEdgeStyle;rounded=0;orthogonalLoop=1;jettySize=auto;html=1;exitX=0.5;exitY=1;exitDx=0;exitDy=0;entryX=0.5;entryY=0;entryDx=0;entryDy=0;" edge="1" parent="1" source="iplLW6rDe4Sud-mIpLHP-7" target="iplLW6rDe4Sud-mIpLHP-24">
          <mxGeometry relative="1" as="geometry" />
        </mxCell>
        <mxCell id="iplLW6rDe4Sud-mIpLHP-7" value="Perform Fraud Check" style="rounded=0;whiteSpace=wrap;html=1;fillColor=#d5e8d4;strokeColor=#82b366;" vertex="1" parent="1">
          <mxGeometry x="140" y="690" width="120" height="60" as="geometry" />
        </mxCell>
        <mxCell id="iplLW6rDe4Sud-mIpLHP-40" style="edgeStyle=orthogonalEdgeStyle;rounded=0;orthogonalLoop=1;jettySize=auto;html=1;exitX=0.5;exitY=1;exitDx=0;exitDy=0;" edge="1" parent="1" source="iplLW6rDe4Sud-mIpLHP-8">
          <mxGeometry relative="1" as="geometry">
            <mxPoint x="199.57142857142867" y="1030" as="targetPoint" />
          </mxGeometry>
        </mxCell>
        <mxCell id="iplLW6rDe4Sud-mIpLHP-8" value="Release Order for Fulfillment" style="rounded=0;whiteSpace=wrap;html=1;fillColor=#d5e8d4;strokeColor=#82b366;" vertex="1" parent="1">
          <mxGeometry x="140" y="920" width="120" height="60" as="geometry" />
        </mxCell>
        <mxCell id="iplLW6rDe4Sud-mIpLHP-11" style="edgeStyle=orthogonalEdgeStyle;rounded=0;orthogonalLoop=1;jettySize=auto;html=1;exitX=0.5;exitY=1;exitDx=0;exitDy=0;" edge="1" parent="1" source="iplLW6rDe4Sud-mIpLHP-10" target="iplLW6rDe4Sud-mIpLHP-3">
          <mxGeometry relative="1" as="geometry" />
        </mxCell>
        <mxCell id="iplLW6rDe4Sud-mIpLHP-65" value="Yes" style="edgeLabel;html=1;align=center;verticalAlign=middle;resizable=0;points=[];" vertex="1" connectable="0" parent="iplLW6rDe4Sud-mIpLHP-11">
          <mxGeometry x="-0.1238" relative="1" as="geometry">
            <mxPoint as="offset" />
          </mxGeometry>
        </mxCell>
        <mxCell id="iplLW6rDe4Sud-mIpLHP-63" style="edgeStyle=orthogonalEdgeStyle;rounded=0;orthogonalLoop=1;jettySize=auto;html=1;exitX=1;exitY=0.5;exitDx=0;exitDy=0;entryX=0;entryY=0.5;entryDx=0;entryDy=0;" edge="1" parent="1" source="iplLW6rDe4Sud-mIpLHP-10" target="iplLW6rDe4Sud-mIpLHP-56">
          <mxGeometry relative="1" as="geometry" />
        </mxCell>
        <mxCell id="iplLW6rDe4Sud-mIpLHP-64" value="No" style="edgeLabel;html=1;align=center;verticalAlign=middle;resizable=0;points=[];" vertex="1" connectable="0" parent="iplLW6rDe4Sud-mIpLHP-63">
          <mxGeometry x="-0.7468" y="4" relative="1" as="geometry">
            <mxPoint y="4" as="offset" />
          </mxGeometry>
        </mxCell>
        <mxCell id="iplLW6rDe4Sud-mIpLHP-10" value="Auth successful?" style="rhombus;whiteSpace=wrap;html=1;fillColor=#dae8fc;strokeColor=#6c8ebf;" vertex="1" parent="1">
          <mxGeometry x="160" y="150" width="80" height="80" as="geometry" />
        </mxCell>
        <mxCell id="iplLW6rDe4Sud-mIpLHP-17" style="edgeStyle=orthogonalEdgeStyle;rounded=0;orthogonalLoop=1;jettySize=auto;html=1;exitX=0.5;exitY=1;exitDx=0;exitDy=0;" edge="1" parent="1" source="iplLW6rDe4Sud-mIpLHP-16" target="iplLW6rDe4Sud-mIpLHP-4">
          <mxGeometry relative="1" as="geometry" />
        </mxCell>
        <mxCell id="iplLW6rDe4Sud-mIpLHP-62" value="Yes" style="edgeLabel;html=1;align=center;verticalAlign=middle;resizable=0;points=[];" vertex="1" connectable="0" parent="iplLW6rDe4Sud-mIpLHP-17">
          <mxGeometry x="-0.5192" y="-3" relative="1" as="geometry">
            <mxPoint x="3" y="1" as="offset" />
          </mxGeometry>
        </mxCell>
        <mxCell id="iplLW6rDe4Sud-mIpLHP-42" style="edgeStyle=orthogonalEdgeStyle;rounded=0;orthogonalLoop=1;jettySize=auto;html=1;exitX=1;exitY=0.5;exitDx=0;exitDy=0;entryX=0;entryY=0.5;entryDx=0;entryDy=0;" edge="1" parent="1" source="iplLW6rDe4Sud-mIpLHP-16" target="iplLW6rDe4Sud-mIpLHP-21">
          <mxGeometry relative="1" as="geometry" />
        </mxCell>
        <mxCell id="iplLW6rDe4Sud-mIpLHP-52" value="No" style="edgeLabel;html=1;align=center;verticalAlign=middle;resizable=0;points=[];" vertex="1" connectable="0" parent="iplLW6rDe4Sud-mIpLHP-42">
          <mxGeometry x="-0.7489" y="1" relative="1" as="geometry">
            <mxPoint as="offset" />
          </mxGeometry>
        </mxCell>
        <mxCell id="iplLW6rDe4Sud-mIpLHP-16" value="Inventory available?" style="rhombus;whiteSpace=wrap;html=1;fillColor=#dae8fc;strokeColor=#6c8ebf;" vertex="1" parent="1">
          <mxGeometry x="160" y="360" width="80" height="80" as="geometry" />
        </mxCell>
        <mxCell id="iplLW6rDe4Sud-mIpLHP-38" style="edgeStyle=orthogonalEdgeStyle;rounded=0;orthogonalLoop=1;jettySize=auto;html=1;exitX=0.5;exitY=0;exitDx=0;exitDy=0;entryX=0.5;entryY=1;entryDx=0;entryDy=0;" edge="1" parent="1" source="iplLW6rDe4Sud-mIpLHP-20" target="iplLW6rDe4Sud-mIpLHP-23">
          <mxGeometry relative="1" as="geometry" />
        </mxCell>
        <mxCell id="iplLW6rDe4Sud-mIpLHP-20" value="Release inventory hold" style="rounded=0;whiteSpace=wrap;html=1;fillColor=#ffe6cc;strokeColor=#d79b00;" vertex="1" parent="1">
          <mxGeometry x="380" y="390" width="120" height="60" as="geometry" />
        </mxCell>
        <mxCell id="iplLW6rDe4Sud-mIpLHP-55" style="edgeStyle=orthogonalEdgeStyle;rounded=0;orthogonalLoop=1;jettySize=auto;html=1;exitX=0.5;exitY=0;exitDx=0;exitDy=0;entryX=0.5;entryY=1;entryDx=0;entryDy=0;" edge="1" parent="1" source="iplLW6rDe4Sud-mIpLHP-21" target="iplLW6rDe4Sud-mIpLHP-56">
          <mxGeometry relative="1" as="geometry">
            <mxPoint x="439.38461538461524" y="140" as="targetPoint" />
          </mxGeometry>
        </mxCell>
        <mxCell id="iplLW6rDe4Sud-mIpLHP-21" value="Reverse&amp;nbsp;&lt;div&gt;Authorization&lt;/div&gt;" style="rounded=0;whiteSpace=wrap;html=1;fillColor=#ffe6cc;strokeColor=#d79b00;" vertex="1" parent="1">
          <mxGeometry x="380" y="190" width="120" height="60" as="geometry" />
        </mxCell>
        <mxCell id="iplLW6rDe4Sud-mIpLHP-39" style="edgeStyle=orthogonalEdgeStyle;rounded=0;orthogonalLoop=1;jettySize=auto;html=1;exitX=0.5;exitY=0;exitDx=0;exitDy=0;entryX=0.5;entryY=1;entryDx=0;entryDy=0;" edge="1" parent="1" source="iplLW6rDe4Sud-mIpLHP-23" target="iplLW6rDe4Sud-mIpLHP-21">
          <mxGeometry relative="1" as="geometry" />
        </mxCell>
        <mxCell id="iplLW6rDe4Sud-mIpLHP-23" value="Update Product Availability" style="rounded=0;whiteSpace=wrap;html=1;fillColor=#ffe6cc;strokeColor=#d79b00;" vertex="1" parent="1">
          <mxGeometry x="380" y="290" width="120" height="60" as="geometry" />
        </mxCell>
        <mxCell id="iplLW6rDe4Sud-mIpLHP-25" style="edgeStyle=orthogonalEdgeStyle;rounded=0;orthogonalLoop=1;jettySize=auto;html=1;exitX=0.5;exitY=1;exitDx=0;exitDy=0;" edge="1" parent="1" source="iplLW6rDe4Sud-mIpLHP-24" target="iplLW6rDe4Sud-mIpLHP-8">
          <mxGeometry relative="1" as="geometry" />
        </mxCell>
        <mxCell id="iplLW6rDe4Sud-mIpLHP-53" value="Yes" style="edgeLabel;html=1;align=center;verticalAlign=middle;resizable=0;points=[];" vertex="1" connectable="0" parent="iplLW6rDe4Sud-mIpLHP-25">
          <mxGeometry x="-0.4217" relative="1" as="geometry">
            <mxPoint as="offset" />
          </mxGeometry>
        </mxCell>
        <mxCell id="iplLW6rDe4Sud-mIpLHP-31" style="edgeStyle=orthogonalEdgeStyle;rounded=0;orthogonalLoop=1;jettySize=auto;html=1;exitX=1;exitY=0.5;exitDx=0;exitDy=0;entryX=0;entryY=0.5;entryDx=0;entryDy=0;" edge="1" parent="1" source="iplLW6rDe4Sud-mIpLHP-24" target="iplLW6rDe4Sud-mIpLHP-30">
          <mxGeometry relative="1" as="geometry" />
        </mxCell>
        <mxCell id="iplLW6rDe4Sud-mIpLHP-54" value="No" style="edgeLabel;html=1;align=center;verticalAlign=middle;resizable=0;points=[];" vertex="1" connectable="0" parent="iplLW6rDe4Sud-mIpLHP-31">
          <mxGeometry x="-0.1217" y="3" relative="1" as="geometry">
            <mxPoint y="3" as="offset" />
          </mxGeometry>
        </mxCell>
        <mxCell id="iplLW6rDe4Sud-mIpLHP-24" value="Accept the order?" style="rhombus;whiteSpace=wrap;html=1;fillColor=#dae8fc;strokeColor=#6c8ebf;" vertex="1" parent="1">
          <mxGeometry x="160" y="800" width="80" height="80" as="geometry" />
        </mxCell>
        <mxCell id="iplLW6rDe4Sud-mIpLHP-28" value="Wait for Final Decision" style="rounded=0;whiteSpace=wrap;html=1;fillColor=#d5e8d4;strokeColor=#82b366;" vertex="1" parent="1">
          <mxGeometry x="440" y="810" width="120" height="60" as="geometry" />
        </mxCell>
        <mxCell id="iplLW6rDe4Sud-mIpLHP-32" style="edgeStyle=orthogonalEdgeStyle;rounded=0;orthogonalLoop=1;jettySize=auto;html=1;exitX=0.5;exitY=0;exitDx=0;exitDy=0;entryX=0.5;entryY=1;entryDx=0;entryDy=0;" edge="1" parent="1" source="iplLW6rDe4Sud-mIpLHP-30" target="iplLW6rDe4Sud-mIpLHP-41">
          <mxGeometry relative="1" as="geometry">
            <mxPoint x="420" y="620" as="targetPoint" />
          </mxGeometry>
        </mxCell>
        <mxCell id="iplLW6rDe4Sud-mIpLHP-43" value="No, Reject Order" style="edgeLabel;html=1;align=center;verticalAlign=middle;resizable=0;points=[];" vertex="1" connectable="0" parent="iplLW6rDe4Sud-mIpLHP-32">
          <mxGeometry x="-0.7204" y="2" relative="1" as="geometry">
            <mxPoint as="offset" />
          </mxGeometry>
        </mxCell>
        <mxCell id="iplLW6rDe4Sud-mIpLHP-33" style="edgeStyle=orthogonalEdgeStyle;rounded=0;orthogonalLoop=1;jettySize=auto;html=1;exitX=1;exitY=0.5;exitDx=0;exitDy=0;entryX=0;entryY=0.5;entryDx=0;entryDy=0;endArrow=async;endFill=0;" edge="1" parent="1" source="iplLW6rDe4Sud-mIpLHP-30" target="iplLW6rDe4Sud-mIpLHP-28">
          <mxGeometry relative="1" as="geometry" />
        </mxCell>
        <mxCell id="iplLW6rDe4Sud-mIpLHP-44" value="Yes" style="edgeLabel;html=1;align=center;verticalAlign=middle;resizable=0;points=[];" vertex="1" connectable="0" parent="iplLW6rDe4Sud-mIpLHP-33">
          <mxGeometry x="-0.449" y="2" relative="1" as="geometry">
            <mxPoint x="11" y="2" as="offset" />
          </mxGeometry>
        </mxCell>
        <mxCell id="iplLW6rDe4Sud-mIpLHP-30" value="Requires Manual Review?" style="rhombus;whiteSpace=wrap;html=1;fillColor=#dae8fc;strokeColor=#6c8ebf;" vertex="1" parent="1">
          <mxGeometry x="300" y="800" width="80" height="80" as="geometry" />
        </mxCell>
        <mxCell id="iplLW6rDe4Sud-mIpLHP-45" style="edgeStyle=orthogonalEdgeStyle;rounded=0;orthogonalLoop=1;jettySize=auto;html=1;entryX=0.5;entryY=1;entryDx=0;entryDy=0;" edge="1" parent="1" source="iplLW6rDe4Sud-mIpLHP-41" target="iplLW6rDe4Sud-mIpLHP-20">
          <mxGeometry relative="1" as="geometry" />
        </mxCell>
        <mxCell id="iplLW6rDe4Sud-mIpLHP-41" value="Send Order Cancellation to Customer" style="rounded=0;whiteSpace=wrap;html=1;fillColor=#ffe6cc;strokeColor=#d79b00;" vertex="1" parent="1">
          <mxGeometry x="380" y="490" width="120" height="60" as="geometry" />
        </mxCell>
        <mxCell id="iplLW6rDe4Sud-mIpLHP-49" style="edgeStyle=orthogonalEdgeStyle;rounded=0;orthogonalLoop=1;jettySize=auto;html=1;exitX=0;exitY=0.5;exitDx=0;exitDy=0;entryX=1;entryY=0.5;entryDx=0;entryDy=0;endArrow=async;endFill=0;" edge="1" parent="1" source="iplLW6rDe4Sud-mIpLHP-47" target="iplLW6rDe4Sud-mIpLHP-48">
          <mxGeometry relative="1" as="geometry" />
        </mxCell>
        <mxCell id="iplLW6rDe4Sud-mIpLHP-47" value="Manual Review Process" style="rounded=0;whiteSpace=wrap;html=1;fillColor=#d5e8d4;strokeColor=#82b366;" vertex="1" parent="1">
          <mxGeometry x="680" y="640" width="120" height="60" as="geometry" />
        </mxCell>
        <mxCell id="iplLW6rDe4Sud-mIpLHP-50" style="edgeStyle=orthogonalEdgeStyle;rounded=0;orthogonalLoop=1;jettySize=auto;html=1;entryX=1;entryY=0.5;entryDx=0;entryDy=0;" edge="1" parent="1" source="iplLW6rDe4Sud-mIpLHP-48" target="iplLW6rDe4Sud-mIpLHP-8">
          <mxGeometry relative="1" as="geometry">
            <Array as="points">
              <mxPoint x="600" y="950" />
            </Array>
          </mxGeometry>
        </mxCell>
        <mxCell id="iplLW6rDe4Sud-mIpLHP-61" value="Yes" style="edgeLabel;html=1;align=center;verticalAlign=middle;resizable=0;points=[];" vertex="1" connectable="0" parent="iplLW6rDe4Sud-mIpLHP-50">
          <mxGeometry x="-0.6884" relative="1" as="geometry">
            <mxPoint as="offset" />
          </mxGeometry>
        </mxCell>
        <mxCell id="iplLW6rDe4Sud-mIpLHP-51" style="edgeStyle=orthogonalEdgeStyle;rounded=0;orthogonalLoop=1;jettySize=auto;html=1;exitX=0.5;exitY=0;exitDx=0;exitDy=0;entryX=1;entryY=0.5;entryDx=0;entryDy=0;" edge="1" parent="1" source="iplLW6rDe4Sud-mIpLHP-48" target="iplLW6rDe4Sud-mIpLHP-41">
          <mxGeometry relative="1" as="geometry" />
        </mxCell>
        <mxCell id="iplLW6rDe4Sud-mIpLHP-60" value="No" style="edgeLabel;html=1;align=center;verticalAlign=middle;resizable=0;points=[];" vertex="1" connectable="0" parent="iplLW6rDe4Sud-mIpLHP-51">
          <mxGeometry x="-0.5344" y="1" relative="1" as="geometry">
            <mxPoint as="offset" />
          </mxGeometry>
        </mxCell>
        <mxCell id="iplLW6rDe4Sud-mIpLHP-48" value="Accept the order?" style="rhombus;whiteSpace=wrap;html=1;fillColor=#dae8fc;strokeColor=#6c8ebf;" vertex="1" parent="1">
          <mxGeometry x="560" y="630" width="80" height="80" as="geometry" />
        </mxCell>
        <mxCell id="iplLW6rDe4Sud-mIpLHP-56" value="" style="ellipse;html=1;shape=endState;fillColor=#000000;strokeColor=#ff0000;" vertex="1" parent="1">
          <mxGeometry x="425" y="80" width="30" height="30" as="geometry" />
        </mxCell>
        <mxCell id="iplLW6rDe4Sud-mIpLHP-57" value="" style="ellipse;html=1;shape=endState;fillColor=#000000;strokeColor=light-dark(#00ff40, #ff9090);" vertex="1" parent="1">
          <mxGeometry x="185" y="1030" width="30" height="30" as="geometry" />
        </mxCell>
        <mxCell id="iplLW6rDe4Sud-mIpLHP-58" value="" style="ellipse;shape=doubleEllipse;html=1;dashed=0;whiteSpace=wrap;aspect=fixed;" vertex="1" parent="1">
          <mxGeometry x="30" y="75" width="30" height="30" as="geometry" />
        </mxCell>
        <mxCell id="iplLW6rDe4Sud-mIpLHP-59" value="Loss Prevention" style="shape=umlActor;verticalLabelPosition=bottom;verticalAlign=top;html=1;outlineConnect=0;" vertex="1" parent="1">
          <mxGeometry x="725" y="720" width="30" height="60" as="geometry" />
        </mxCell>
      </root>
    </mxGraphModel>
  </diagram>
</mxfile>
